<svg width="44" height="44" viewBox="0 0 44 44" fill="none" xmlns="http://www.w3.org/2000/svg">
<path d="M22 0C9.8 0 0 9.8 0 22C0 34.2 9.8 44 22 44C34.2 44 44 34.2 44 22C44 9.8 34.2 0 22 0ZM16.8 24.4L15.4 25.8C15 26.2 14.4 26.2 14 25.8L11.5 23.3C9.9 21.7 9 19.6 9 17.3C9 12.7 12.8 8.9 17.4 8.9C19.6 8.9 21.8 9.8 23.4 11.4L25.9 13.9C26.3 14.3 26.3 14.9 25.9 15.3L24.5 16.7C24.1 17.1 23.5 17.1 23.1 16.7L20.6 14.2C19.8 13.4 18.7 12.9 17.5 12.9C15.1 12.9 13.1 14.9 13.1 17.3C13.1 18.5 13.6 19.6 14.4 20.4L16.9 22.9C17.1 23.4 17.1 24 16.8 24.4V24.4ZM17.3 18.7L18.7 17.3C19.1 16.9 19.7 16.9 20.1 17.3L26.7 23.9C27.1 24.3 27.1 24.9 26.7 25.3L25.3 26.7C24.9 27.1 24.3 27.1 23.9 26.7L17.3 20.1C16.9 19.7 16.9 19.1 17.3 18.7V18.7ZM26.6 35C24.4 35 22.2 34.1 20.6 32.5L18.1 30C17.7 29.6 17.7 29 18.1 28.6L19.5 27.2C19.9 26.8 20.5 26.8 20.9 27.2L23.4 29.7C24.2 30.5 25.3 31 26.5 31C28.9 31 30.9 29 30.9 26.6C30.9 25.4 30.4 24.3 29.6 23.5L27.1 21C26.7 20.6 26.7 20 27.1 19.6L28.5 18.2C28.9 17.8 29.5 17.8 29.9 18.2L32.4 20.7C34 22.3 34.9 24.4 34.9 26.7C35 31.2 31.2 35 26.6 35V35Z" fill="#5A5A5F"/>
</svg>
